<?xml version="1.0" encoding="UTF-8"?>
<svg id="Layer_2" data-name="Layer 2" xmlns="http://www.w3.org/2000/svg" viewBox="0 0 100 100">
  <defs>
    <style>
      .cls-1, .cls-2 {
        fill: #58595b;
      }

      .cls-2 {
        fill-rule: evenodd;
      }
    </style>
  </defs>
  <g id="Layer_1-2" data-name="Layer 1">
    <g>
      <path class="cls-1" d="M64.66,33.63c3,3.01,5.7,6.32,8.03,9.88l4.22-2.54,3.21,19.41-15.33-12.12,3.96-2.38c-2.13-3.24-4.6-6.26-7.34-9-6.04-6.04-13.4-10.68-21.46-13.49l1.08-4.48c9.14,3.19,17.1,8.21,23.62,14.73Zm-29.32,32.75c-3-3-5.7-6.32-8.03-9.87l-4.22,2.54-3.21-19.41,15.32,12.11-3.96,2.39c2.13,3.24,4.6,6.26,7.34,9,6.03,6.04,13.4,10.69,21.45,13.49l-1.08,4.48c-9.13-3.18-17.09-8.2-23.62-14.72Z"/>
      <g>
        <path class="cls-2" d="M100,38.79v44.96c0,8.98-7.28,16.25-16.25,16.25H38.79v-2.94h44.96c7.35,0,13.32-5.96,13.32-13.32V38.79h2.94Z"/>
        <path class="cls-2" d="M0,61.22V16.25C0,7.28,7.28,0,16.25,0H61.21V2.94H16.25c-7.35,0-13.32,5.96-13.32,13.32V61.22H0Z"/>
      </g>
    </g>
  </g>
</svg>