<?xml version="1.0" encoding="UTF-8"?>
<svg id="Layer_2" data-name="Layer 2" xmlns="http://www.w3.org/2000/svg" viewBox="0 0 100 100">
  <defs>
    <style>
      .cls-1 {
        fill: #58595b;
      }
    </style>
  </defs>
  <g id="Layer_1-2" data-name="Layer 1">
    <path class="cls-1" d="M23.4,26.71l-2.98-8.27,2.37-.85,2.98,8.26-2.37,.86m50.49,17.95l8.09-17.35,2.28,1.06-8.09,17.36-2.29-1.07Zm-9.6-3.31l4.96-18.49,2.44,.65-4.96,18.49-2.44-.65Zm-10.03-1.59l1.67-19.08,2.51,.22-1.67,19.07-2.51-.22Zm-10.16,.17l-1.67-19.07,2.51-.22,1.67,19.07-2.52,.22Zm-9.97,1.93l-4.96-18.49,2.44-.65,4.95,18.49-2.44,.65Zm-9.48,3.64l-8.09-17.35,2.28-1.07,8.09,17.35-2.29,1.07Zm47.21,37.57h10.75v2.52h-10.75v-2.52Zm-47.84-4.11v4.11h4.11v2.52h-4.11v4.11h-2.53v-4.11h-4.11v-2.52h4.11v-4.11h2.53Zm36.69-12.32v3.93h-2.52v-3.93h-6.93v11.29l9.86,19.13h22.62c7.35,0,13.31-5.96,13.31-13.31V38.79h2.94v44.96c0,8.98-7.28,16.25-16.25,16.25H38.79v-2.76l9.95-19.3v-11.29h-7.1v4.06h-2.52v-4.06h-7.09v9.92h-2.52v-9.92h-7.09v4.06h-2.52v-4.06H11.53v-5.05h15.78L7.1,27.84l2.17-1.29L30.25,61.59h18.49V22.82h2.52V61.59h18.48l20.99-35.05,2.17,1.3-20.21,33.76h15.79v5.05h-8.85v3.93h-2.52v-3.93h-6.93v9.69h-2.52v-9.69h-6.93Zm2.49-7.61l13.69-37.74,2.37,.86-13.68,37.74-2.38-.86Zm-6.63-2.77l7.24-40.64,2.48,.44-7.24,40.64-2.49-.44Zm-14.17,2.1l-6.65-38.88,2.49-.43,6.65,38.88-2.49,.43Zm-11.33-10.49l-5.96-16.53,2.37-.86,5.96,16.53-2.37,.86ZM0,61.21V16.26C0,7.28,7.28,0,16.25,0H61.21V2.94H16.25c-7.35,0-13.31,5.96-13.31,13.32V61.21H0ZM51.26,20.29h-2.52v-5.67h2.52v5.67Z"/>
  </g>
</svg>