<?xml version="1.0" encoding="UTF-8"?>
<svg id="Layer_2" data-name="Layer 2" xmlns="http://www.w3.org/2000/svg" viewBox="0 0 100 100">
  <defs>
    <style>
      .cls-1 {
        fill: #58595b;
        fill-rule: evenodd;
      }
    </style>
  </defs>
  <g id="Layer_1-2" data-name="Layer 1">
    <path class="cls-1" d="M87.04,50.95c0,21.19-17.18,38.37-38.37,38.37S10.31,72.14,10.31,50.95,27.48,12.58,48.68,12.58s38.37,17.18,38.37,38.37m-73.3,0c0,19.29,15.64,34.93,34.93,34.93s34.93-15.64,34.93-34.93-15.64-34.93-34.93-34.93S13.74,31.66,13.74,50.95Zm66.34,0c0,17.35-14.06,31.4-31.41,31.4s-31.4-14.06-31.4-31.4,14.06-31.41,31.4-31.41,31.41,14.06,31.41,31.41Zm-3.44,0c0-14.87-11.6-27.03-26.25-27.91v24.07c1.47,.66,2.49,2.13,2.49,3.85l20.87,12.38c1.85-3.73,2.88-7.93,2.88-12.38Zm-27.97,27.97c9.77,0,18.37-5.01,23.38-12.61l-20.89-11.96c-.7,.51-1.56,.81-2.48,.81s-1.79-.3-2.49-.81l-20.89,11.96c5,7.59,13.6,12.61,23.37,12.61Zm-27.97-27.97c0,4.45,1.04,8.65,2.88,12.38l20.89-11.96c-.02-2.13,1.01-3.61,2.48-4.26V23.03c-14.65,.89-26.25,13.04-26.25,27.91Zm50.86-8.53c0,4.24-3.44,7.69-7.69,7.69s-7.69-3.45-7.69-7.69,3.44-7.69,7.69-7.69,7.69,3.45,7.69,7.69Zm-11.94,0c0,2.35,1.9,4.25,4.25,4.25s4.25-1.9,4.25-4.25-1.9-4.25-4.25-4.25-4.25,1.9-4.25,4.25Zm-3.3,26c0,4.25-3.44,7.69-7.69,7.69s-7.69-3.44-7.69-7.69,3.44-7.69,7.69-7.69,7.69,3.44,7.69,7.69Zm-11.94,0c0,2.35,1.9,4.25,4.25,4.25s4.25-1.9,4.25-4.25-1.9-4.25-4.25-4.25-4.25,1.9-4.25,4.25Zm-3.23-26c0,4.24-3.45,7.69-7.69,7.69s-7.69-3.45-7.69-7.69,3.44-7.69,7.69-7.69,7.69,3.45,7.69,7.69Zm-11.94,0c0,2.35,1.9,4.25,4.25,4.25s4.25-1.9,4.25-4.25-1.9-4.25-4.25-4.25-4.25,1.9-4.25,4.25Zm70.78-3.63v44.96c0,8.98-7.28,16.25-16.25,16.25H38.79v-2.94h44.96c7.35,0,13.32-5.96,13.32-13.32V38.79h2.94ZM0,61.22V16.25C0,7.28,7.28,0,16.25,0H61.21V2.94H16.25c-7.35,0-13.32,5.96-13.32,13.32V61.22H0Z"/>
  </g>
</svg>