<?xml version="1.0" encoding="UTF-8"?>
<svg id="Layer_1" data-name="Layer 1" xmlns="http://www.w3.org/2000/svg" viewBox="0 0 512.23 105.36">
  <polyline points="19.16 67.05 47.89 67.05 45.15 76.63 6.83 76.63 0 67.05 16.48 9.58 64.37 9.58 61.63 19.16 32.89 19.16 27.4 38.31 56.13 38.31 53.39 47.89 24.65 47.89 19.16 67.05" style="fill: #e30613;"/>
  <polyline points="76.63 67.05 86.2 67.05 102.68 9.58 121.84 9.58 102.61 76.63 64.3 76.63 57.47 67.05 73.95 9.58 93.11 9.58 76.63 67.05" style="fill: #e30613;"/>
  <path d="M168.31,47.9h-9.56l6.83,9.57-5.49,19.16h-19.16l8.24-28.73h-9.58l-8.24,28.73h-19.16L131.42,9.58h38.31l6.83,9.58-8.26,28.74m-25.97-9.58h9.58l5.49-19.16h-9.58l-5.49,19.16h0Z" style="fill: #e30613; fill-rule: evenodd;"/>
  <polyline points="254.53 47.89 283.27 47.89 266.79 105.36 20.5 95.78 13.66 86.2 253.12 86.2 261.36 57.47 232.63 57.47 249.11 0 482.36 9.07 489.54 19.16 262.77 19.16 254.53 47.89" style="fill: #e30613;"/>
  <path d="M217.56,76.63h-38.31l-6.83-9.58,16.48-57.47h47.89l-19.22,67.05m-25.99-9.58h9.58l13.73-47.89h-9.58l-13.73,47.89Z" style="fill: #e30613; fill-rule: evenodd;"/>
  <path d="M335.25,67.05h-28.74l-8.24,28.73h-19.16l19.22-67.05h38.31l6.83,9.58-8.24,28.74m-25.99-9.58h9.58l5.49-19.16h-9.58l-5.49,19.16Z" style="fill: #e30613; fill-rule: evenodd;"/>
  <polyline points="432.44 28.73 439.19 38.59 442.02 28.73 451.59 28.73 458.43 38.31 441.95 95.78 422.79 95.78 434.61 54.47 427.72 44.87 413.21 95.78 394.06 95.78 413.28 28.73 432.44 28.73" style="fill: #e30613;"/>
  <path d="M384.48,95.78h-19.16l8.24-28.73h-9.58l-8.24,28.73h-19.16l19.22-67.05h38.31l6.83,9.58-16.48,57.47m-17.75-38.31h9.58l5.49-19.16h-9.58l-5.49,19.16Z" style="fill: #e30613; fill-rule: evenodd;"/>
  <path d="M470.75,28.73h25.77l15.71,22.37-12.81,44.68h-47.89l19.22-67.05m23.23,19.21l-6.82-9.63-13.73,47.89h9.58l10.97-38.26h0Z" style="fill: #e30613; fill-rule: evenodd;"/>
</svg>