<?xml version="1.0" encoding="UTF-8"?>
<svg id="Layer_1" data-name="Layer 1" xmlns="http://www.w3.org/2000/svg" viewBox="0 0 1382.83 284.44">
  <defs>
    <style>
      .cls-1, .cls-2 {
        fill: #e30613;
      }

      .cls-2 {
        fill-rule: evenodd;
      }
    </style>
  </defs>
  <polyline class="cls-1" points="51.72 181.01 129.29 181.01 121.88 206.87 18.44 206.87 0 181.01 44.49 25.86 173.78 25.86 166.37 51.72 88.79 51.72 73.96 103.43 151.53 103.43 144.12 129.29 66.55 129.29 51.72 181.01"/>
  <polyline class="cls-1" points="206.86 181.01 232.72 181.01 277.21 25.86 328.93 25.86 277.02 206.87 173.59 206.87 155.15 181.01 199.64 25.86 251.35 25.86 206.86 181.01"/>
  <path class="cls-2" d="M454.37,129.31h-25.81s18.44,25.84,18.44,25.84l-14.83,51.72h-51.72l22.24-77.57h-25.86l-22.24,77.57h-51.72L354.79,25.86h103.43l18.44,25.86-22.29,77.59m-70.11-25.87h25.86l14.83-51.72h-25.86l-14.83,51.72Z"/>
  <polyline class="cls-1" points="687.14 129.29 764.72 129.29 720.23 284.44 55.33 258.58 36.88 232.72 683.34 232.72 705.58 155.15 628.01 155.15 672.5 0 1302.2 24.49 1321.57 51.72 709.39 51.72 687.14 129.29"/>
  <path class="cls-2" d="M587.32,206.87h-103.43s-18.44-25.86-18.44-25.86L509.94,25.86h129.29l-51.9,181.01m-70.16-25.86h25.86l37.07-129.29h-25.86l-37.07,129.29Z"/>
  <path class="cls-2" d="M905.04,181.01h-77.58s-22.24,77.57-22.24,77.57h-51.72l51.9-181.01h103.43s18.44,25.86,18.44,25.86l-22.24,77.58m-70.16-25.86h25.86l14.83-51.72h-25.86l-14.83,51.72Z"/>
  <polyline class="cls-1" points="1167.42 77.57 1185.64 104.19 1193.28 77.57 1219.13 77.57 1237.58 103.43 1193.09 258.58 1141.37 258.58 1173.27 147.04 1154.68 121.14 1115.52 258.58 1063.8 258.58 1115.7 77.57 1167.42 77.57"/>
  <path class="cls-2" d="M1037.94,258.58h-51.72l22.24-77.57h-25.86l-22.24,77.57h-51.72l51.9-181.01h103.43l18.45,25.86-44.49,155.15m-47.92-103.43h25.86l14.83-51.72h-25.86l-14.83,51.72Z"/>
  <path class="cls-2" d="M1270.85,77.57h69.58l42.4,60.38-34.59,120.63h-129.29l51.9-181.01m62.71,51.86l-18.4-26-37.07,129.29h25.86l29.62-103.29Z"/>
</svg>